<?xml version="1.0" encoding="UTF-8" standalone="no"?>
<!-- Created with Inkscape (http://www.inkscape.org/) -->

<svg
   version="1.1"
   id="svg1"
   width="529"
   height="535.32239"
   viewBox="0 0 529 535.32239"
   xmlns="http://www.w3.org/2000/svg"
   xmlns:svg="http://www.w3.org/2000/svg">
  <defs
     id="defs1" />
  <g
     id="g1"
     transform="translate(-230.80193,-250.85023)">
    <path
       style="fill:#f4f1eb;fill-opacity:1"
       d="m 249.55193,786.07817 -18.75,-0.27206 V 518.32817 250.85024 h 264.5 264.5 v 267.5 267.5 l -10.25,0.0185 c -148.95329,0.26849 -486.19487,0.40977 -500,0.20945 z m 486.23992,-267.72793 0.0298,-243.5 H 495.31177 254.80193 v 243.5 243.5 h 240.48008 240.48008 z m -430.98992,150.5 v -23 h 190.5 190.5 v 23 23 h -190.5 -190.5 z m 0,-83.5 v -39.5 h 190.5 190.5 v 23 23 h -65.29138 -65.29138 l -35.63138,16.5 -35.63139,16.5 h -89.57723 -89.57724 z m -0.19098,-61.25 c -0.16996,-0.4125 -0.18613,-18.1875 -0.0359,-39.5 l 0.27304,-38.75 h 190.47692 190.47692 v 23 23 l -88.75,0.004 -88.75,0.004 -42.88642,16.49596 -42.88642,16.49604 h -58.80456 c -32.34251,0 -58.94362,-0.3375 -59.11358,-0.75 z m 0.1241,-99.64948 c -0.23821,-0.23782 -0.31035,-18.02023 -0.1603,-39.51646 l 0.27281,-39.08406 h 190.47719 190.47718 v 23 23 H 614.3292 542.85647 l -16.27727,7.63342 c -8.9525,4.19839 -24.37727,11.51089 -34.27727,16.25 l -18,8.61658 -84.56688,0.26646 c -46.51178,0.14655 -84.76178,0.0719 -85,-0.16594 z"
       id="path1" />
  </g>
</svg>
